# xmcd CD database file
#
# Track frame offsets:
#	150
#	17662
#	32115
#	53462
#	71885
#	99957
#	119385
#	141120
#	160292
#	174800
#	204637
#
# Disc length: 3016 seconds
#
# Revision: 4
# Processed by: cddbd v1.5.2PL0 Copyright (c) Steve Scherf et al.
# Submitted via: CDex 1.51
#
DISCID=8d0bc60b
DTITLE=Bellamy Brothers - Dancin'
DYEAR=1996
DGENRE=Country
TTITLE0=Redneck Girl
TTITLE1=Reggae Cowboy
TTITLE2=Shine Them Buckles
TTITLE3=Cowboy Beat
TTITLE4=Rip Off The Knob
TTITLE5=Hard Way To Make An Easy Livin'
TTITLE6=Big Hair
TTITLE7=Twang Town
TTITLE8=Get A Little Crazy
TTITLE9=We Dared The Lightning
TTITLE10=If I Said You Had A Beautiful Body (Would You Hold It Against Me)
EXTD=YEAR: 1996
EXTT0=
EXTT1=
EXTT2=
EXTT3=
EXTT4=
EXTT5=
EXTT6=
EXTT7=
EXTT8=
EXTT9=
EXTT10=
PLAYORDER=
